<svg width="1007" height="140" viewBox="0 0 1007 140" fill="none" xmlns="http://www.w3.org/2000/svg">
  <path
    d="M941.914 21L914.914 87H968.914L941.914 21ZM908.914 101L892.914 140H876.914L934.914 0H948.914L1006.91 140H990.914L974.914 101H908.914Z"
    fill="#1D1D1D" />
  <path
    d="M816.977 75L858.977 0H875.977L823.977 91V140H808.977V91L756.977 0H773.977L815.977 75H816.977Z"
    fill="#1D1D1D" />
  <path d="M708.945 0H723.945V140H708.945V0Z" fill="#1D1D1D" />
  <path
    d="M621.984 0C628.251 0 633.984 1.06667 639.184 3.2C644.518 5.33333 649.051 8.26667 652.784 12C656.651 15.7333 659.651 20.2 661.784 25.4C663.918 30.4667 664.984 36 664.984 42C664.984 50 663.451 56.6 660.384 61.8C657.451 66.8667 654.184 70.9333 650.584 74C646.318 77.4667 641.451 80.1333 635.984 82L668.984 140H651.984L620.984 84H580.984V140H565.984V0H621.984ZM580.984 14V70H621.984C630.518 70 637.318 67.4667 642.384 62.4C647.451 57.3333 649.984 50.5333 649.984 42C649.984 33.4667 647.451 26.6667 642.384 21.6C637.318 16.5333 630.518 14 621.984 14H580.984Z"
    fill="#1D1D1D" />
  <path
    d="M466.945 21L439.945 87H493.945L466.945 21ZM433.945 101L417.945 140H401.945L459.945 0H473.945L531.945 140H515.945L499.945 101H433.945Z"
    fill="#1D1D1D" />
  <path d="M281.023 14V0H378.023V14L296.023 126H380.023V140H278.023V126L360.023 14H281.023Z"
    fill="#1D1D1D" />
  <path
    d="M190.984 21L163.984 87H217.984L190.984 21ZM157.984 101L141.984 140H125.984L183.984 0H197.984L255.984 140H239.984L223.984 101H157.984Z"
    fill="#1D1D1D" />
  <path d="M87 0H106L53 58L111 140H93L43 69L15 99V140H0V0H15V79L87 0Z" fill="#1D1D1D" />
</svg>
